<svg xmlns="http://www.w3.org/2000/svg" width="16.68" height="18.34" viewBox="0 0 16.68 18.34"><path d="M2.5-3.34H5.84A.787.787,0,0,0,6.152-3.4a1.076,1.076,0,0,0,.273-.176l9.16-9.18a.8.8,0,0,0,.254-.586.8.8,0,0,0-.254-.586l-3.34-3.32a.8.8,0,0,0-.586-.254.8.8,0,0,0-.586.254l-9.16,9.16a1.514,1.514,0,0,0-.186.264A.675.675,0,0,0,1.66-7.5v3.34a.787.787,0,0,0,.234.6A.839.839,0,0,0,2.5-3.34Zm.84-3.828,8.32-8.34,2.168,2.168L5.508-5H3.34ZM17.5-.84H2.5a.819.819,0,0,0-.605.234A.819.819,0,0,0,1.66,0a.819.819,0,0,0,.234.605A.819.819,0,0,0,2.5.84h15a.819.819,0,0,0,.605-.234A.819.819,0,0,0,18.34,0a.819.819,0,0,0-.234-.605A.819.819,0,0,0,17.5-.84Z" transform="translate(-1.66 17.5)"/></svg>