<svg xmlns="http://www.w3.org/2000/svg" width="138.833" height="62" viewBox="0 0 138.833 62"><defs><style>.a{opacity:0.15;}.b{opacity:0.5;}.c{fill:#ecc707;}</style></defs><g transform="translate(0)"><g transform="translate(0)"><path class="a" d="M95.87,89.069a9.789,9.789,0,1,1-8.529-14.59V70.33A13.94,13.94,0,1,0,99.482,91.1Z" transform="translate(-55.972 -53.639)"/><g class="b" transform="translate(8.662 14.631)"><path d="M59.205,96.23A18.561,18.561,0,0,1,46.243,64.365L43.082,61.65a22.723,22.723,0,1,0,38.864,16h-4.16a18.6,18.6,0,0,1-18.58,18.58Z" transform="translate(-36.498 -61.65)"/></g><path d="M44.362,54.546A27.218,27.218,0,1,1,24.629,4.258V0A31.364,31.364,0,1,0,46.052,58.34Z" transform="translate(0)"/><path class="c" d="M123.7,8.01a11.752,11.752,0,0,1-4.578-3.339V0h-3.743V25.142a5.9,5.9,0,1,0,3.743,5.489V12.224c1.516.475,3.56,1.094,5.33,1.5,5.852,1.367,7.357,5.836,7.357,5.836h.672C132.474,16.415,129.789,10.57,123.7,8.01Z" transform="translate(-81.851)"/><path class="c" d="M271.228,44.523h-4.3V23.05h4.3V33.786l8-10.736H284.1l-6.783,9.061L284.1,44.523h-4.882l-4.718-8.684-3.277,4.388Z" transform="translate(-203.582 -17.58)"/><path class="c" d="M348.829,60.981h-4.1V44.955h.987l1.348,1.557a7.181,7.181,0,0,1,4.848-1.882,6.925,6.925,0,0,1,2.774.562,7.191,7.191,0,0,1,3.809,3.833,7,7,0,0,1,.562,2.793v9.163H354.97V51.818a2.976,2.976,0,0,0-.237-1.187,3.085,3.085,0,0,0-.657-.98,3.152,3.152,0,0,0-.975-.662,2.966,2.966,0,0,0-1.187-.237,3.106,3.106,0,0,0-1.213.237,3.054,3.054,0,0,0-.987.66,3.086,3.086,0,0,0-.648.978,3.019,3.019,0,0,0-.237,1.187Z" transform="translate(-262.919 -34.038)"/><path class="c" d="M430.011,51.86a8.641,8.641,0,0,1-.646,3.346,8.376,8.376,0,0,1-1.751,2.679,8.126,8.126,0,0,1-13.342-2.679,8.639,8.639,0,0,1-.643-3.346,8.754,8.754,0,0,1,.643-3.384,8.306,8.306,0,0,1,1.759-2.689,8.2,8.2,0,0,1,2.611-1.775,7.979,7.979,0,0,1,3.182-.643,8.361,8.361,0,0,1,3.2.608,7.708,7.708,0,0,1,2.6,1.721,8.183,8.183,0,0,1,1.751,2.682,9.053,9.053,0,0,1,.641,3.481Zm-4.12,0a4.777,4.777,0,0,0-.309-1.789,4.3,4.3,0,0,0-.876-1.379,3.8,3.8,0,0,0-1.3-.883,4.234,4.234,0,0,0-3.161,0,3.688,3.688,0,0,0-1.286.883,4.193,4.193,0,0,0-.861,1.379,4.874,4.874,0,0,0-.313,1.789,4.649,4.649,0,0,0,.313,1.721,4.293,4.293,0,0,0,.861,1.379,4.035,4.035,0,0,0,1.286.921,3.811,3.811,0,0,0,1.581.337,3.975,3.975,0,0,0,1.581-.316,3.928,3.928,0,0,0,1.3-.883,4.194,4.194,0,0,0,.876-1.376A4.811,4.811,0,0,0,425.891,51.86Z" transform="translate(-315.466 -33.077)"/><path class="c" d="M512.014,56.325a5.935,5.935,0,0,1-.475,2.373,6.057,6.057,0,0,1-1.31,1.939,6.253,6.253,0,0,1-1.946,1.3,6.02,6.02,0,0,1-2.39.475,6.107,6.107,0,0,1-2.186-.4,6.011,6.011,0,0,1-1.9-1.161,5.865,5.865,0,0,1-1.88,1.161,6.071,6.071,0,0,1-2.193.4,5.969,5.969,0,0,1-2.373-.475,6.306,6.306,0,0,1-1.939-1.3,6.131,6.131,0,0,1-1.31-1.939,5.983,5.983,0,0,1-.475-2.373V46.12h4.089v10.2a1.984,1.984,0,0,0,.157.786,2.038,2.038,0,0,0,1.061,1.085,1.986,1.986,0,0,0,.788.157,2.036,2.036,0,0,0,.793-.157,2.1,2.1,0,0,0,.66-.434,1.967,1.967,0,0,0,.6-1.424v-10.2h4.068v10.2a1.875,1.875,0,0,0,.166.786,2.136,2.136,0,0,0,.441.643,2.024,2.024,0,0,0,.643.43,1.984,1.984,0,0,0,.786.157,2.039,2.039,0,0,0,.788-.157,2,2,0,0,0,.65-.434,2.135,2.135,0,0,0,.441-.643,1.875,1.875,0,0,0,.166-.786v-10.2h4.072Z" transform="translate(-374.963 -35.175)"/><path d="M271.218,154.793H266.93V133.32h4.288v8.6H279.8v-8.6H284.1v21.473h-4.3v-8.579h-8.589Z" transform="translate(-203.582 -101.68)"/><path d="M356.583,178.367v-4.118l2.276.031a3.5,3.5,0,0,0,1.153-.195,3.98,3.98,0,0,0,1.856-1.355,4.472,4.472,0,0,0,.584-1.025c-.449.19-.9.377-1.369.567a3.674,3.674,0,0,1-1.4.285,7.357,7.357,0,0,1-2.779-.524,6.757,6.757,0,0,1-3.826-3.84,8.242,8.242,0,0,1-.56-3.107V156.22h4.072v8.866a4.115,4.115,0,0,0,.237,1.488,3.043,3.043,0,0,0,.667,1.063,2.648,2.648,0,0,0,.98.638,3.415,3.415,0,0,0,1.206.209,2.549,2.549,0,0,0,1.187-.292,3.352,3.352,0,0,0,.98-.771,3.743,3.743,0,0,0,.66-1.085,3.4,3.4,0,0,0,.237-1.251V156.22h4.127v14.016a8.1,8.1,0,0,1-.66,3.175A8.256,8.256,0,0,1,364.452,176a8.409,8.409,0,0,1-2.6,1.763,7.879,7.879,0,0,1-3.175.643Z" transform="translate(-268.857 -119.146)"/><path d="M528.707,171.251H524.62V155.213h.987l1.348,1.559a7.182,7.182,0,0,1,4.851-1.872,6.963,6.963,0,0,1,2.772.56A7.217,7.217,0,0,1,536.854,157a7.3,7.3,0,0,1,1.533,2.293,7,7,0,0,1,.563,2.791v9.165H534.86v-9.165a2.973,2.973,0,0,0-.237-1.187,3.031,3.031,0,0,0-.657-.992,3.111,3.111,0,0,0-.973-.66,2.966,2.966,0,0,0-1.187-.237,3.107,3.107,0,0,0-1.213.237,3.061,3.061,0,0,0-1.887,2.829Z" transform="translate(-400.117 -118.139)"/><path d="M455.94,162.207h1.175v9.013h3.892v-9.013h1.172V154.9H455.94Z" transform="translate(-347.736 -118.139)"/><path d="M488.341,154.9H485.73v7.307h1.187v9.018h5.062V158.538a3.638,3.638,0,0,0-3.638-3.638Z" transform="translate(-370.456 -118.139)"/><path d="M429.889,154.9H426.12v12.839a3.489,3.489,0,0,0,3.489,3.486h1.573v-9.018h1.175V154.9Z" transform="translate(-324.993 -118.139)"/></g></g></svg>